<svg width="170" height="40" viewBox="0 0 170 40" fill="none" xmlns="http://www.w3.org/2000/svg">
<path d="M22.5546 8.99954C22.5546 8.99609 22.996 9.01435 23.2111 9.04117C30.367 9.59187 36.0004 15.5173 36.0004 22.7454C36.0003 29.9803 30.3561 35.9094 23.1905 36.4503C22.982 36.4755 22.5546 36.4904 22.5546 36.4904H14.0885V38.2819C14.0884 39.2307 13.3118 39.9998 12.3537 39.9999H1.73709C0.779026 39.9998 0.00238228 39.2307 0.00229268 38.2819V31.4241C0.00179913 31.3949 7.6177e-07 31.3656 0 31.3363V14.1544C0 11.3076 2.33057 8.99954 5.20515 8.99954H22.5546ZM7.80734 13.7919C6.84928 13.792 6.07263 14.5611 6.07254 15.5099V29.6183C6.07275 30.567 6.84935 31.3362 7.80734 31.3363H21.6872C26.0862 30.8063 29.4945 27.0299 29.4946 22.5304C29.4946 18.0308 26.0863 14.3218 21.6872 13.7919H7.80734Z" fill="white"/>
<path d="M36.5428 0.298097C37.6596 -0.329407 39.0737 0.0660113 39.7019 1.18153C40.3301 2.29709 39.9342 3.70974 38.8176 4.3373C26.7265 11.1313 22.2832 21.2615 21.1913 27.0788C21.1772 27.154 21.0392 28.0595 20.1506 28.6276C18.9496 29.3954 17.8414 28.7655 17.5934 28.6004C17.2861 28.3959 17.0985 28.1643 17.0466 28.1003C16.9672 28.0021 16.9072 27.9128 16.8714 27.8581C16.7525 27.6764 16.6165 27.4248 16.5338 27.2742C16.3217 26.888 16.0375 26.3729 15.6487 25.7842C14.8603 24.5904 13.7107 23.2061 12.1263 22.2565C11.0277 21.5979 10.6719 20.1741 11.3311 19.0766C11.9903 17.9791 13.4157 17.6229 14.5143 18.2814C15.9621 19.1491 17.1193 20.2217 18.0284 21.2636C20.5004 14.5947 25.9414 6.25508 36.5428 0.298097Z" fill="url(#paint0_linear_3116_15984)"/>
<path d="M156.994 28.7324L156.976 25.3961H157.449L163.025 19.4548H166.286L159.927 26.2188H159.499L156.994 28.7324ZM154.489 33.4946V14.7749H157.213V33.4946H154.489ZM163.325 33.4946L158.315 26.822L160.191 24.9117L166.668 33.4946H163.325Z" fill="white"/>
<path d="M147.886 33.5699C146.532 33.5699 145.365 33.2621 144.388 32.6467C143.416 32.0251 142.669 31.169 142.147 30.0782C141.624 28.9875 141.363 27.7383 141.363 26.3306C141.363 24.9047 141.63 23.6464 142.165 22.5556C142.699 21.4588 143.452 20.6026 144.424 19.9872C145.396 19.3717 146.541 19.064 147.858 19.064C148.921 19.064 149.869 19.262 150.701 19.6581C151.533 20.0481 152.204 20.5965 152.714 21.3034C153.23 22.0102 153.537 22.8359 153.634 23.7804H150.983C150.837 23.1223 150.503 22.5556 149.981 22.0803C149.465 21.605 148.773 21.3674 147.904 21.3674C147.145 21.3674 146.48 21.5685 145.909 21.9706C145.344 22.3667 144.904 22.9334 144.588 23.6708C144.272 24.402 144.114 25.2673 144.114 26.2666C144.114 27.2904 144.269 28.174 144.579 28.9174C144.889 29.6608 145.326 30.2367 145.891 30.6449C146.462 31.0532 147.133 31.2573 147.904 31.2573C148.42 31.2573 148.888 31.1629 149.307 30.974C149.732 30.779 150.087 30.5017 150.373 30.1422C150.664 29.7827 150.868 29.35 150.983 28.8443H153.634C153.537 29.7522 153.242 30.5627 152.75 31.2756C152.258 31.9886 151.6 32.5492 150.774 32.9575C149.954 33.3657 148.991 33.5699 147.886 33.5699Z" fill="white"/>
<path d="M108.59 33.5699C107.236 33.5699 106.07 33.2621 105.092 32.6467C104.12 32.0251 103.373 31.169 102.851 30.0782C102.329 28.9875 102.067 27.7383 102.067 26.3306C102.067 24.9047 102.335 23.6464 102.869 22.5556C103.403 21.4588 104.157 20.6026 105.128 19.9872C106.1 19.3717 107.245 19.064 108.563 19.064C109.625 19.064 110.573 19.262 111.405 19.6581C112.237 20.0481 112.908 20.5965 113.418 21.3034C113.934 22.0102 114.241 22.8359 114.338 23.7804H111.687C111.541 23.1223 111.207 22.5556 110.685 22.0803C110.169 21.605 109.477 21.3674 108.608 21.3674C107.849 21.3674 107.184 21.5685 106.613 21.9706C106.048 22.3667 105.608 22.9334 105.292 23.6708C104.976 24.402 104.819 25.2673 104.819 26.2666C104.819 27.2904 104.973 28.174 105.283 28.9174C105.593 29.6608 106.03 30.2367 106.595 30.6449C107.166 31.0532 107.837 31.2573 108.608 31.2573C109.124 31.2573 109.592 31.1629 110.011 30.974C110.436 30.779 110.791 30.5017 111.077 30.1422C111.368 29.7827 111.572 29.35 111.687 28.8443H114.338C114.241 29.7522 113.946 30.5627 113.454 31.2756C112.963 31.9886 112.304 32.5492 111.478 32.9575C110.658 33.3657 109.695 33.5699 108.59 33.5699Z" fill="white"/>
<path d="M134.505 33.5699C133.126 33.5699 131.939 33.2743 130.943 32.6832C129.953 32.0861 129.188 31.2482 128.647 30.1696C128.113 29.085 127.846 27.8144 127.846 26.3581C127.846 24.92 128.113 23.6525 128.647 22.5556C129.188 21.4588 129.941 20.6026 130.907 19.9872C131.878 19.3717 133.014 19.064 134.314 19.064C135.103 19.064 135.868 19.195 136.609 19.457C137.35 19.719 138.015 20.1304 138.604 20.691C139.193 21.2516 139.658 21.9798 139.998 22.8755C140.338 23.7652 140.508 24.8468 140.508 26.1204V27.0893H129.385V25.0418H137.839C137.839 24.3228 137.693 23.686 137.402 23.1315C137.11 22.5709 136.7 22.1291 136.172 21.8061C135.65 21.4831 135.036 21.3217 134.332 21.3217C133.567 21.3217 132.899 21.5106 132.328 21.8884C131.763 22.2601 131.326 22.7476 131.016 23.3508C130.712 23.948 130.56 24.597 130.56 25.2978V26.8973C130.56 27.8358 130.724 28.634 131.052 29.2921C131.386 29.9503 131.851 30.453 132.446 30.8003C133.041 31.1416 133.737 31.3122 134.532 31.3122C135.048 31.3122 135.519 31.2391 135.944 31.0928C136.369 30.9405 136.737 30.715 137.046 30.4164C137.356 30.1178 137.593 29.7492 137.757 29.3104L140.335 29.7766C140.129 30.5383 139.758 31.2055 139.224 31.7783C138.695 32.3451 138.03 32.7868 137.229 33.1037C136.433 33.4145 135.525 33.5699 134.505 33.5699Z" fill="white"/>
<path d="M117.917 25.1585V33.4946H115.193V14.7749H117.881V21.7399H118.054C118.382 20.9843 118.883 20.3841 119.557 19.9393C120.231 19.4944 121.112 19.272 122.199 19.272C123.158 19.272 123.996 19.4701 124.713 19.8661C125.436 20.2622 125.994 20.8533 126.389 21.6394C126.79 22.4194 126.99 23.3944 126.99 24.5643V33.4946H124.267V24.8934C124.267 23.8636 124.002 23.0653 123.474 22.4986C122.946 21.9258 122.211 21.6394 121.27 21.6394C120.626 21.6394 120.049 21.7765 119.539 22.0507C119.035 22.3249 118.637 22.7271 118.345 23.2572C118.06 23.7813 117.917 24.415 117.917 25.1585Z" fill="white"/>
<path d="M88.6 36.6666L88.4316 19.2468H91.0917V21.5227H91.3194C91.4773 21.2303 91.7051 20.8921 92.0026 20.5082C92.3002 20.1243 92.7132 19.7891 93.2416 19.5027C93.7699 19.2102 94.4683 19.064 95.3368 19.064C96.4664 19.064 97.4745 19.3504 98.3612 19.9232C99.2479 20.496 99.9433 21.3217 100.447 22.4002C100.957 23.4788 101.213 24.7768 101.213 26.2941C101.213 27.8114 100.961 29.1124 100.456 30.197C99.9524 31.2756 99.26 32.1074 98.3794 32.6924C97.4988 33.2713 96.4937 33.5607 95.3641 33.5607C94.5139 33.5607 93.8185 33.4175 93.278 33.1311C92.7436 32.8447 92.3245 32.5096 92.0209 32.1257C91.7172 31.7418 91.4834 31.4005 91.3194 31.1019H91.1554L91.3238 36.6666H88.6ZM91.1008 26.2666C91.1008 27.2538 91.2435 28.1191 91.5289 28.8625C91.8144 29.606 92.2273 30.1879 92.7679 30.6084C93.3084 31.0227 93.9703 31.2299 94.7538 31.2299C95.5676 31.2299 96.2478 31.0136 96.7943 30.5809C97.3409 30.1422 97.7539 29.5481 98.0333 28.7986C98.3187 28.049 98.4614 27.2051 98.4614 26.2666C98.4614 25.3404 98.3217 24.5086 98.0424 23.7713C97.7691 23.034 97.3561 22.452 96.8034 22.0255C96.2569 21.5989 95.5736 21.3856 94.7538 21.3856C93.9643 21.3856 93.2962 21.5898 92.7496 21.9981C92.2091 22.4063 91.7992 22.9761 91.5198 23.7073C91.2405 24.4386 91.1008 25.2917 91.1008 26.2666Z" fill="white"/>
<path d="M81.0538 33.5699C79.742 33.5699 78.5972 33.2682 77.6194 32.665C76.6417 32.0617 75.8825 31.2177 75.342 30.1331C74.8015 29.0484 74.5312 27.7809 74.5312 26.3306C74.5312 24.8742 74.8015 23.6007 75.342 22.5099C75.8825 21.4192 76.6417 20.5721 77.6194 19.9689C78.5972 19.3656 79.742 19.064 81.0538 19.064C82.3656 19.064 83.5104 19.3656 84.4881 19.9689C85.4659 20.5721 86.2251 21.4192 86.7656 22.5099C87.3061 23.6007 87.5763 24.8742 87.5763 26.3306C87.5763 27.7809 87.3061 29.0484 86.7656 30.1331C86.2251 31.2177 85.4659 32.0617 84.4881 32.665C83.5104 33.2682 82.3656 33.5699 81.0538 33.5699ZM81.0629 31.2756C81.9131 31.2756 82.6176 31.0502 83.1763 30.5992C83.7351 30.1483 84.148 29.5481 84.4153 28.7986C84.6886 28.049 84.8252 27.2233 84.8252 26.3215C84.8252 25.4257 84.6886 24.6031 84.4153 23.8536C84.148 23.098 83.7351 22.4916 83.1763 22.0346C82.6176 21.5776 81.9131 21.3491 81.0629 21.3491C80.2066 21.3491 79.496 21.5776 78.9312 22.0346C78.3725 22.4916 77.9565 23.098 77.6832 23.8536C77.416 24.6031 77.2824 25.4257 77.2824 26.3215C77.2824 27.2233 77.416 28.049 77.6832 28.7986C77.9565 29.5481 78.3725 30.1483 78.9312 30.5992C79.496 31.0502 80.2066 31.2756 81.0629 31.2756Z" fill="white"/>
<path d="M67.1534 33.5699C65.8416 33.5699 64.6968 33.2682 63.719 32.665C62.7413 32.0617 61.9821 31.2177 61.4416 30.1331C60.9011 29.0484 60.6309 27.7809 60.6309 26.3306C60.6309 24.8742 60.9011 23.6007 61.4416 22.5099C61.9821 21.4192 62.7413 20.5721 63.719 19.9689C64.6968 19.3656 65.8416 19.064 67.1534 19.064C68.4652 19.064 69.61 19.3656 70.5878 19.9689C71.5655 20.5721 72.3247 21.4192 72.8652 22.5099C73.4057 23.6007 73.6759 24.8742 73.6759 26.3306C73.6759 27.7809 73.4057 29.0484 72.8652 30.1331C72.3247 31.2177 71.5655 32.0617 70.5878 32.665C69.61 33.2682 68.4652 33.5699 67.1534 33.5699ZM67.1625 31.2756C68.0127 31.2756 68.7172 31.0502 69.276 30.5992C69.8347 30.1483 70.2477 29.5481 70.5149 28.7986C70.7882 28.049 70.9248 27.2233 70.9248 26.3215C70.9248 25.4257 70.7882 24.6031 70.5149 23.8536C70.2477 23.098 69.8347 22.4916 69.276 22.0346C68.7172 21.5776 68.0127 21.3491 67.1625 21.3491C66.3062 21.3491 65.5956 21.5776 65.0308 22.0346C64.4721 22.4916 64.0561 23.098 63.7828 23.8536C63.5156 24.6031 63.382 25.4257 63.382 26.3215C63.382 27.2233 63.5156 28.049 63.7828 28.7986C64.0561 29.5481 64.4721 30.1483 65.0308 30.5992C65.5956 31.0502 66.3062 31.2756 67.1625 31.2756Z" fill="white"/>
<path d="M46.667 33.9305V14.7749H53.3171C54.7685 14.7749 55.971 15.04 56.9245 15.5701C57.878 16.1003 58.5916 16.8254 59.0653 17.7456C59.539 18.6596 59.7758 19.6894 59.7758 20.835C59.7758 21.9867 59.536 23.0226 59.0562 23.9428C58.5825 24.8568 57.8658 25.582 56.9063 26.1182C55.9528 26.6484 54.7534 26.9134 53.308 26.9134H48.7349V24.5186H53.0529C53.9699 24.5186 54.7139 24.3602 55.2848 24.0433C55.8556 23.7204 56.2747 23.2816 56.5419 22.7271C56.8091 22.1726 56.9427 21.5419 56.9427 20.835C56.9427 20.1282 56.8091 19.5005 56.5419 18.9521C56.2747 18.4037 55.8526 17.9741 55.2757 17.6633C54.7048 17.3525 53.9517 17.1971 53.0164 17.1971H49.4819V33.9305H46.667Z" fill="white"/>
<defs>
<linearGradient id="paint0_linear_3116_15984" x1="40.0003" y1="-8.79106e-07" x2="8.19805" y2="3.49351" gradientUnits="userSpaceOnUse">
<stop stop-color="#A3FFBF"/>
<stop offset="1" stop-color="#9BF0FF"/>
</linearGradient>
</defs>
</svg>
