<svg width="204" height="48" viewBox="0 0 204 48" fill="none" xmlns="http://www.w3.org/2000/svg">
<path d="M27.0652 10.7994C27.0652 10.7953 27.5949 10.8172 27.853 10.8494C36.4399 11.5102 43.2 18.6206 43.2 27.2942C43.1999 35.976 36.4268 43.0909 27.8282 43.74C27.578 43.7702 27.0652 43.7881 27.0652 43.7881H16.906V45.9378C16.9059 47.0764 15.974 47.9993 14.8243 47.9994H2.08448C0.934821 47.9993 0.00285871 47.0764 0.00275118 45.9378V37.7086C0.00215893 37.6735 9.14114e-07 37.6384 0 37.6032V16.9852C0 13.5691 2.79665 10.7994 6.2461 10.7994H27.0652ZM9.3687 16.5502C8.21904 16.5503 7.28707 17.4733 7.28697 18.6118V35.5416C7.28721 36.6801 8.21912 37.6031 9.3687 37.6032H26.0244C31.3031 36.9673 35.393 32.4357 35.3931 27.0363C35.3931 21.6368 31.3032 17.1861 26.0244 16.5502H9.3687Z" fill="white"/>
<path d="M43.8512 0.357712C45.1913 -0.395284 46.8883 0.0792127 47.6421 1.41782C48.3959 2.75647 47.9209 4.45164 46.5809 5.2047C32.0718 13.3574 26.7399 25.5135 25.4296 32.4941C25.4127 32.5844 25.2471 33.671 24.1808 34.3527C22.7396 35.2741 21.4097 34.5182 21.1122 34.3201C20.7435 34.0747 20.5183 33.7968 20.4561 33.7199C20.3607 33.6021 20.2887 33.4949 20.2458 33.4293C20.1032 33.2114 19.9399 32.9093 19.8407 32.7286C19.5862 32.2652 19.2451 31.6471 18.7786 30.9406C17.8325 29.5081 16.453 27.847 14.5518 26.7075C13.2335 25.9171 12.8064 24.2086 13.5975 22.8916C14.3886 21.5747 16.0989 21.1472 17.4174 21.9374C19.1546 22.9787 20.5433 24.2658 21.6342 25.5161C24.6005 17.5134 31.1297 7.50601 43.8512 0.357712Z" fill="url(#paint0_linear_3116_10518)"/>
<path d="M188.391 34.4783L188.369 30.4748H188.938L195.628 23.3453H199.541L191.911 31.462H191.397L188.391 34.4783ZM185.385 40.1928V17.7295H188.653V40.1928H185.385ZM195.988 40.1928L189.976 32.1859L192.228 29.8935L200 40.1928H195.988Z" fill="white"/>
<path d="M177.461 40.2834C175.836 40.2834 174.437 39.9141 173.264 39.1755C172.098 38.4297 171.201 37.4023 170.574 36.0934C169.948 34.7845 169.634 33.2855 169.634 31.5964C169.634 29.8853 169.955 28.3753 170.596 27.0664C171.238 25.7502 172.141 24.7228 173.307 23.9843C174.473 23.2457 175.847 22.8765 177.428 22.8765C178.704 22.8765 179.841 23.1141 180.839 23.5894C181.837 24.0574 182.643 24.7155 183.255 25.5637C183.874 26.412 184.242 27.4028 184.359 28.5362H181.178C181.003 27.7464 180.602 27.0664 179.975 26.496C179.356 25.9257 178.525 25.6405 177.483 25.6405C176.572 25.6405 175.774 25.8818 175.089 26.3644C174.411 26.8397 173.883 27.5198 173.504 28.4046C173.125 29.282 172.936 30.3204 172.936 31.5196C172.936 32.748 173.121 33.8083 173.493 34.7004C173.865 35.5925 174.389 36.2835 175.067 36.7735C175.752 37.2634 176.558 37.5083 177.483 37.5083C178.103 37.5083 178.664 37.395 179.167 37.1683C179.677 36.9343 180.103 36.6016 180.446 36.1702C180.795 35.7388 181.039 35.2196 181.178 34.6127H184.359C184.242 35.7022 183.889 36.6747 183.299 37.5303C182.708 38.3858 181.918 39.0585 180.927 39.5485C179.943 40.0384 178.788 40.2834 177.461 40.2834Z" fill="white"/>
<path d="M130.307 40.2834C128.682 40.2834 127.283 39.9141 126.109 39.1755C124.943 38.4297 124.047 37.4023 123.42 36.0934C122.793 34.7845 122.48 33.2855 122.48 31.5964C122.48 29.8853 122.801 28.3753 123.442 27.0664C124.083 25.7502 124.987 24.7228 126.153 23.9843C127.319 23.2457 128.693 22.8765 130.274 22.8765C131.549 22.8765 132.686 23.1141 133.685 23.5894C134.683 24.0574 135.488 24.7155 136.101 25.5637C136.72 26.412 137.088 27.4028 137.205 28.5362H134.024C133.849 27.7464 133.448 27.0664 132.821 26.496C132.202 25.9257 131.371 25.6405 130.329 25.6405C129.418 25.6405 128.62 25.8818 127.935 26.3644C127.257 26.8397 126.729 27.5198 126.35 28.4046C125.971 29.282 125.781 30.3204 125.781 31.5196C125.781 32.748 125.967 33.8083 126.339 34.7004C126.71 35.5925 127.235 36.2835 127.913 36.7735C128.598 37.2634 129.403 37.5083 130.329 37.5083C130.948 37.5083 131.509 37.395 132.012 37.1683C132.522 36.9343 132.949 36.6016 133.291 36.1702C133.641 35.7388 133.885 35.2196 134.024 34.6127H137.205C137.088 35.7022 136.735 36.6747 136.144 37.5303C135.554 38.3858 134.763 39.0585 133.772 39.5485C132.788 40.0384 131.633 40.2834 130.307 40.2834Z" fill="white"/>
<path d="M161.405 40.2834C159.75 40.2834 158.325 39.9287 157.13 39.2194C155.942 38.5028 155.024 37.4974 154.376 36.2031C153.734 34.9015 153.414 33.3769 153.414 31.6293C153.414 29.9036 153.734 28.3826 154.376 27.0664C155.024 25.7502 155.928 24.7228 157.087 23.9843C158.253 23.2457 159.615 22.8765 161.175 22.8765C162.122 22.8765 163.041 23.0337 163.93 23.3481C164.819 23.6625 165.617 24.1561 166.324 24.8288C167.031 25.5016 167.588 26.3754 167.996 27.4503C168.404 28.5179 168.608 29.8158 168.608 31.3441V32.5067H155.261V30.0498H165.405C165.405 29.187 165.231 28.4228 164.881 27.7574C164.531 27.0847 164.039 26.5545 163.405 26.167C162.778 25.7794 162.042 25.5857 161.197 25.5857C160.279 25.5857 159.477 25.8123 158.792 26.2657C158.114 26.7118 157.589 27.2967 157.218 28.0207C156.853 28.7373 156.671 29.516 156.671 30.3569V32.2764C156.671 33.4025 156.868 34.3604 157.261 35.1501C157.662 35.9399 158.22 36.5431 158.934 36.9599C159.648 37.3694 160.483 37.5742 161.437 37.5742C162.057 37.5742 162.622 37.4864 163.132 37.3109C163.642 37.1281 164.083 36.8575 164.454 36.4992C164.826 36.1409 165.11 35.6986 165.307 35.1721L168.401 35.7315C168.153 36.6455 167.708 37.4462 167.067 38.1335C166.433 38.8136 165.635 39.3437 164.673 39.724C163.718 40.0969 162.629 40.2834 161.405 40.2834Z" fill="white"/>
<path d="M141.499 30.1896V40.1928H138.23V17.7295H141.455V26.0874H141.663C142.056 25.1807 142.658 24.4604 143.467 23.9267C144.276 23.3929 145.332 23.126 146.637 23.126C147.788 23.126 148.794 23.3636 149.654 23.8389C150.521 24.3142 151.192 25.0235 151.665 25.9668C152.146 26.9028 152.387 28.0727 152.387 29.4767V40.1928H149.118V29.8715C149.118 28.6358 148.801 27.6779 148.167 26.9978C147.533 26.3105 146.651 25.9668 145.522 25.9668C144.749 25.9668 144.057 26.1313 143.445 26.4604C142.84 26.7894 142.363 27.272 142.013 27.9082C141.67 28.537 141.499 29.2975 141.499 30.1896Z" fill="white"/>
<path d="M106.319 43.9993L106.117 23.0958H109.309V25.827H109.582C109.772 25.476 110.045 25.0701 110.402 24.6095C110.759 24.1488 111.255 23.7466 111.889 23.4029C112.523 23.052 113.361 22.8765 114.403 22.8765C115.759 22.8765 116.969 23.2201 118.033 23.9075C119.097 24.5949 119.931 25.5857 120.536 26.8799C121.148 28.1742 121.454 29.7317 121.454 31.5525C121.454 33.3732 121.152 34.9344 120.547 36.236C119.942 37.5303 119.111 38.5284 118.054 39.2304C116.998 39.9251 115.792 40.2724 114.436 40.2724C113.416 40.2724 112.581 40.1005 111.933 39.7569C111.291 39.4132 110.789 39.011 110.424 38.5503C110.06 38.0897 109.779 37.6802 109.582 37.3219H109.386L109.588 43.9993H106.319ZM109.32 31.5196C109.32 32.7042 109.491 33.7425 109.834 34.6346C110.176 35.5267 110.672 36.225 111.321 36.7296C111.969 37.2268 112.764 37.4754 113.704 37.4754C114.68 37.4754 115.496 37.2158 116.152 36.6967C116.808 36.1702 117.304 35.4572 117.639 34.5578C117.982 33.6584 118.153 32.6457 118.153 31.5196C118.153 30.4081 117.985 29.41 117.65 28.5252C117.322 27.6404 116.826 26.9421 116.163 26.4302C115.507 25.9184 114.687 25.6624 113.704 25.6624C112.756 25.6624 111.955 25.9074 111.299 26.3973C110.65 26.8873 110.158 27.5709 109.823 28.4484C109.488 29.3259 109.32 30.3496 109.32 31.5196Z" fill="white"/>
<path d="M97.2635 40.2834C95.6893 40.2834 94.3156 39.9214 93.1423 39.1975C91.969 38.4736 91.058 37.4608 90.4094 36.1592C89.7608 34.8576 89.4365 33.3367 89.4365 31.5964C89.4365 29.8487 89.7608 28.3205 90.4094 27.0116C91.058 25.7027 91.969 24.6863 93.1423 23.9623C94.3156 23.2384 95.6893 22.8765 97.2635 22.8765C98.8376 22.8765 100.211 23.2384 101.385 23.9623C102.558 24.6863 103.469 25.7027 104.118 27.0116C104.766 28.3205 105.09 29.8487 105.09 31.5964C105.09 33.3367 104.766 34.8576 104.118 36.1592C103.469 37.4608 102.558 38.4736 101.385 39.1975C100.211 39.9214 98.8376 40.2834 97.2635 40.2834ZM97.2744 37.5303C98.2947 37.5303 99.1401 37.2597 99.8105 36.7186C100.481 36.1775 100.977 35.4572 101.297 34.5578C101.625 33.6584 101.789 32.6676 101.789 31.5854C101.789 30.5105 101.625 29.5233 101.297 28.6239C100.977 27.7172 100.481 26.9896 99.8105 26.4412C99.1401 25.8928 98.2947 25.6186 97.2744 25.6186C96.2469 25.6186 95.3942 25.8928 94.7164 26.4412C94.046 26.9896 93.5468 27.7172 93.2188 28.6239C92.8982 29.5233 92.7378 30.5105 92.7378 31.5854C92.7378 32.6676 92.8982 33.6584 93.2188 34.5578C93.5468 35.4572 94.046 36.1775 94.7164 36.7186C95.3942 37.2597 96.2469 37.5303 97.2744 37.5303Z" fill="white"/>
<path d="M80.5838 40.2834C79.0097 40.2834 77.6359 39.9214 76.4626 39.1975C75.2893 38.4736 74.3783 37.4608 73.7297 36.1592C73.0811 34.8576 72.7568 33.3367 72.7568 31.5964C72.7568 29.8487 73.0811 28.3205 73.7297 27.0116C74.3783 25.7027 75.2893 24.6863 76.4626 23.9623C77.6359 23.2384 79.0097 22.8765 80.5838 22.8765C82.1579 22.8765 83.5317 23.2384 84.705 23.9623C85.8783 24.6863 86.7892 25.7027 87.4378 27.0116C88.0864 28.3205 88.4108 29.8487 88.4108 31.5964C88.4108 33.3367 88.0864 34.8576 87.4378 36.1592C86.7892 37.4608 85.8783 38.4736 84.705 39.1975C83.5317 39.9214 82.1579 40.2834 80.5838 40.2834ZM80.5947 37.5303C81.615 37.5303 82.4604 37.2597 83.1308 36.7186C83.8013 36.1775 84.2969 35.4572 84.6175 34.5578C84.9455 33.6584 85.1094 32.6676 85.1094 31.5854C85.1094 30.5105 84.9455 29.5233 84.6175 28.6239C84.2969 27.7172 83.8013 26.9896 83.1308 26.4412C82.4604 25.8928 81.615 25.6186 80.5947 25.6186C79.5672 25.6186 78.7145 25.8928 78.0368 26.4412C77.3663 26.9896 76.8671 27.7172 76.5391 28.6239C76.2185 29.5233 76.0581 30.5105 76.0581 31.5854C76.0581 32.6676 76.2185 33.6584 76.5391 34.5578C76.8671 35.4572 77.3663 36.1775 78.0368 36.7186C78.7145 37.2597 79.5672 37.5303 80.5947 37.5303Z" fill="white"/>
<path d="M56 40.716V17.7295H63.98C65.7218 17.7295 67.1647 18.0476 68.3089 18.6837C69.453 19.3199 70.3093 20.1901 70.8778 21.2942C71.4462 22.3911 71.7304 23.6268 71.7304 25.0016C71.7304 26.3836 71.4426 27.6267 70.8668 28.7308C70.2984 29.8277 69.4385 30.6978 68.287 31.3413C67.1428 31.9775 65.7035 32.2956 63.9691 32.2956H58.4815V29.4218H63.663C64.7634 29.4218 65.6562 29.2317 66.3412 28.8515C67.0262 28.4639 67.5291 27.9374 67.8498 27.272C68.1704 26.6066 68.3307 25.8498 68.3307 25.0016C68.3307 24.1533 68.1704 23.4002 67.8498 22.7421C67.5291 22.084 67.0226 21.5684 66.3303 21.1955C65.6452 20.8226 64.7416 20.6361 63.6193 20.6361H59.3778V40.716H56Z" fill="white"/>
<defs>
<linearGradient id="paint0_linear_3116_10518" x1="48.0002" y1="-1.05491e-06" x2="9.83789" y2="4.19217" gradientUnits="userSpaceOnUse">
<stop stop-color="#A3FFBF"/>
<stop offset="1" stop-color="#9BF0FF"/>
</linearGradient>
</defs>
</svg>
