<svg width="32" height="32" viewBox="0 0 32 32" fill="none" xmlns="http://www.w3.org/2000/svg">
  <rect width="32" height="32" rx="7" fill="#121212"/>
  <g transform="translate(3, 3) scale(0.585)">
    <path d="M27.0652 10.7994C27.0652 10.7953 27.5949 10.8172 27.853 10.8494C36.4399 11.5102 43.2 18.6206 43.2 27.2942C43.1999 35.976 36.4268 43.0909 27.8282 43.74C27.578 43.7702 27.0652 43.7881 27.0652 43.7881H16.906V45.9378C16.9059 47.0764 15.974 47.9993 14.8243 47.9994H2.08448C0.934821 47.9993 0.00285871 47.0764 0.00275118 45.9378V37.7086C0.00215893 37.6735 9.14114e-07 37.6384 0 37.6032V16.9852C0 13.5691 2.79665 10.7994 6.2461 10.7994H27.0652ZM9.3687 16.5502C8.21904 16.5503 7.28707 17.4733 7.28697 18.6118V35.5416C7.28721 36.6801 8.21912 37.6031 9.3687 37.6032H26.0244C31.3031 36.9673 35.393 32.4357 35.3931 27.0363C35.3931 21.6368 31.3032 17.1861 26.0244 16.5502H9.3687Z" fill="white"/>
    <path d="M43.8512 0.357712C45.1913 -0.395284 46.8883 0.0792127 47.6421 1.41782C48.3959 2.75647 47.9209 4.45164 46.5809 5.2047C32.0718 13.3574 26.7399 25.5135 25.4296 32.4941C25.4127 32.5844 25.2471 33.671 24.1808 34.3527C22.7396 35.2741 21.4097 34.5182 21.1122 34.3201C20.7435 34.0747 20.5183 33.7968 20.4561 33.7199C20.3607 33.6021 20.2887 33.4949 20.2458 33.4293C20.1032 33.2114 19.9399 32.9093 19.8407 32.7286C19.5862 32.2652 19.2451 31.6471 18.7786 30.9406C17.8325 29.5081 16.453 27.847 14.5518 26.7075C13.2335 25.9171 12.8064 24.2086 13.5975 22.8916C14.3886 21.5747 16.0989 21.1472 17.4174 21.9374C19.1546 22.9787 20.5433 24.2658 21.6342 25.5161C24.6005 17.5134 31.1297 7.50601 43.8512 0.357712Z" fill="url(#paint0_linear_fav)"/>
  </g>
  <defs>
    <linearGradient id="paint0_linear_fav" x1="48" y1="0" x2="9.84" y2="4.19" gradientUnits="userSpaceOnUse">
      <stop stop-color="#A3FFBF"/>
      <stop offset="1" stop-color="#9BF0FF"/>
    </linearGradient>
  </defs>
</svg>
